<svg id="visual" viewBox="0 0 960 540" width="960" height="540" xmlns="http://www.w3.org/2000/svg" xmlns:xlink="http://www.w3.org/1999/xlink" version="1.1"><path d="M0 212L80 216.5C160 221 320 230 480 230C640 230 800 221 880 216.5L960 212L960 0L880 0C800 0 640 0 480 0C320 0 160 0 80 0L0 0Z" fill="#6198ff"></path><path d="M0 417L80 417.8C160 418.7 320 420.3 480 416.7C640 413 800 404 880 399.5L960 395L960 210L880 214.5C800 219 640 228 480 228C320 228 160 219 80 214.5L0 210Z" fill="#0066ff"></path><path d="M0 541L80 541C160 541 320 541 480 541C640 541 800 541 880 541L960 541L960 393L880 397.5C800 402 640 411 480 414.7C320 418.3 160 416.7 80 415.8L0 415Z" fill="#004cbb"></path></svg>